<svg width="35" height="33" viewBox="0 0 35 33" fill="none" xmlns="http://www.w3.org/2000/svg">
<g clip-path="url(#clip0_167_11)">
<path d="M22.4274 7.51368C22.3259 7.60953 22.2054 7.68557 22.0727 7.73745C21.94 7.78934 21.7978 7.81604 21.6541 7.81604C21.5105 7.81604 21.3683 7.78934 21.2356 7.73745C21.1029 7.68557 20.9823 7.60953 20.8809 7.51368C20.581 7.23002 20.2245 7.00515 19.8319 6.85205C19.4394 6.69895 19.0186 6.62064 18.5938 6.62165C17.6969 6.62165 16.8952 6.96093 16.3068 7.51368C16.2052 7.60942 16.0847 7.68537 15.952 7.73719C15.8193 7.78901 15.6771 7.81568 15.5335 7.81568C15.2435 7.81568 14.9653 7.70704 14.7602 7.51368C14.6587 7.41793 14.5781 7.30426 14.5232 7.17917C14.4682 7.05407 14.4399 6.91999 14.4399 6.78458C14.4399 6.51112 14.5551 6.24886 14.7602 6.05549C15.2633 5.58048 15.861 5.20379 16.5188 4.94701C17.1767 4.69024 17.8818 4.55843 18.5938 4.55915C19.3058 4.55843 20.011 4.69024 20.6688 4.94701C21.3267 5.20379 21.9243 5.58048 22.4274 6.05549C22.6325 6.24888 22.7477 6.51113 22.7477 6.78458C22.7477 7.05803 22.6325 7.32029 22.4274 7.51368ZM9.72789 6.52883C8.762 7.06143 7.8882 7.7302 7.13679 8.51193L7.1357 8.51296C6.38234 9.29812 5.76149 10.1878 5.29492 11.1509C4.81627 12.1393 4.50797 13.1935 4.38164 14.2735C4.36584 14.4081 4.37831 14.5444 4.41835 14.6744C4.45839 14.8045 4.52521 14.9259 4.61499 15.0316C4.70478 15.1373 4.81576 15.2253 4.94162 15.2906C5.06748 15.3559 5.20574 15.3971 5.34851 15.412C5.49128 15.4269 5.63577 15.4152 5.77372 15.3774C5.91167 15.3397 6.04038 15.2767 6.15251 15.192C6.26464 15.1073 6.35798 15.0027 6.42721 14.884C6.49645 14.7654 6.54021 14.635 6.55601 14.5004C6.65731 13.638 6.90357 12.7963 7.28554 12.0068C8.03532 10.4595 9.27376 9.16827 10.8315 8.3098C10.9555 8.24148 11.064 8.15079 11.1509 8.04292C11.2378 7.93505 11.3012 7.8121 11.3377 7.6811C11.3742 7.5501 11.3829 7.41361 11.3634 7.27943C11.3439 7.14524 11.2966 7.01599 11.2241 6.89905C11.1517 6.78211 11.0555 6.67977 10.9411 6.59788C10.8267 6.51599 10.6963 6.45615 10.5573 6.42177C10.2767 6.35234 9.97837 6.39085 9.72789 6.52883ZM26.2501 18.0469C26.2501 17.7734 26.3653 17.5111 26.5704 17.3177C26.7755 17.1243 27.0537 17.0156 27.3438 17.0156C27.6339 17.0156 27.9121 17.1243 28.1172 17.3177C28.3223 17.5111 28.4376 17.7734 28.4376 18.0469C28.4361 18.9773 28.0529 19.871 27.3683 20.5411C26.6837 21.2112 25.7508 21.6056 24.7648 21.6418C25.0087 22.1151 25.1563 22.6411 25.1563 23.2031C25.1563 23.4766 25.0411 23.7389 24.836 23.9323C24.6309 24.1257 24.3527 24.2344 24.0626 24.2344C23.7725 24.2344 23.4943 24.1257 23.2892 23.9323C23.0841 23.7389 22.9688 23.4766 22.9688 23.2031C22.9682 22.793 22.7952 22.3999 22.4877 22.1099C22.1801 21.8199 21.7631 21.6568 21.3282 21.6562H14.5666C14.2766 21.6562 13.9984 21.5476 13.7932 21.3542C13.5881 21.1608 13.4729 20.8985 13.4729 20.625C13.4729 20.3515 13.5881 20.0892 13.7932 19.8958C13.9984 19.7024 14.2766 19.5937 14.5666 19.5937H16.9532C17.3881 19.5929 17.8048 19.4297 18.1123 19.1398C18.4198 18.8498 18.593 18.4569 18.5938 18.0469C18.5938 17.7734 18.7091 17.5111 18.9142 17.3177C19.1193 17.1243 19.3975 17.0156 19.6876 17.0156C19.9777 17.0156 20.2559 17.1243 20.461 17.3177C20.6661 17.5111 20.7813 17.7734 20.7813 18.0469C20.7813 18.6027 20.6369 19.1235 20.3985 19.5937H24.6094C25.0443 19.5929 25.4611 19.4297 25.7686 19.1398C26.0761 18.8498 26.2492 18.4569 26.2501 18.0469Z" fill="#329439"/>
<path d="M35 17.2332C35 16.5856 34.9508 15.9586 34.8753 15.3502C33.8833 7.28784 26.6306 1.03331 17.8161 1.03125H16.4686C7.37187 1.03228 0.00109375 7.98187 0 16.5588C0 17.3636 0.168132 18.1606 0.494795 18.9041C0.821458 19.6477 1.30026 20.3233 1.90385 20.8924C3.12287 22.0418 4.77621 22.6875 6.50016 22.6875H7.8575C8.22535 24.1546 9.10748 25.4618 10.3611 26.3976C11.6148 27.3333 13.1667 27.8429 14.7656 27.8438H22.5356L25.9437 31.0571C26.0585 31.1652 26.2046 31.2387 26.3636 31.2685C26.5226 31.2983 26.6875 31.283 26.8373 31.2245C26.9871 31.166 27.1151 31.067 27.2053 30.9399C27.2954 30.8128 27.3436 30.6634 27.3438 30.5106V27.7582C29.025 27.5608 30.6091 26.9068 31.9032 25.8758C33.1973 24.8447 34.1456 23.4812 34.6325 21.9512C34.7889 21.4583 34.8786 20.9385 34.9355 20.4095L34.9388 20.4012C34.9694 20.3063 35 20.2125 35 20.1094C35 20.0465 34.9956 19.9836 34.9912 19.9217L34.9836 19.8031C34.9836 19.7701 34.988 19.7381 34.9912 19.7072C34.9956 19.669 35 19.6319 35 19.5938V17.2332ZM32.5369 21.3623C32.1331 22.6388 31.3031 23.7584 30.1704 24.5545C29.0377 25.3506 27.6628 25.7809 26.25 25.7812H14.7656C13.5382 25.7811 12.3551 25.3484 11.4487 24.568C10.5423 23.7876 9.97806 22.716 9.86672 21.5634L9.86016 21.4974C9.89672 20.1581 10.4876 18.8853 11.5066 17.9514C12.5255 17.0175 13.8915 16.4966 15.3125 16.5C15.6026 16.5 15.8808 16.3914 16.0859 16.198C16.291 16.0046 16.4062 15.7423 16.4062 15.4688C16.4062 15.1952 16.291 14.9329 16.0859 14.7395C15.8808 14.5461 15.6026 14.4375 15.3125 14.4375C14.0279 14.4359 12.7637 14.7406 11.6375 15.3233C11.4221 14.8679 11.1212 14.4529 10.7494 14.0982C10.5443 13.9049 10.2661 13.7962 9.97609 13.7962C9.68606 13.7962 9.4079 13.9049 9.20281 14.0982C8.99773 14.2916 8.88251 14.5538 8.88251 14.8273C8.88251 15.1008 8.99773 15.363 9.20281 15.5564C9.51344 15.8503 9.72453 16.2267 9.80437 16.6485C8.69176 17.7372 7.97081 19.1284 7.74375 20.625H6.50016C5.93353 20.6258 5.37233 20.5209 4.84883 20.3165C4.32532 20.1121 3.84983 19.8122 3.44969 19.4339C3.04868 19.0568 2.73072 18.6086 2.51411 18.1152C2.29749 17.6217 2.1865 17.0928 2.1875 16.5588C2.1875 12.837 3.78437 9.47719 6.37 7.03725C7.69453 5.78482 9.26862 4.79166 11.0017 4.11488C12.7348 3.43811 14.5927 3.09108 16.4686 3.09375H17.8161C25.1333 3.09169 31.2102 8.04375 32.5281 14.5808C31.3229 13.4707 29.7835 12.7385 28.1203 12.4843C28.6705 11.5335 28.9844 10.4414 28.9844 9.28125C28.9844 9.00775 28.8691 8.74544 28.664 8.55205C28.4589 8.35865 28.1807 8.25 27.8906 8.25C27.6005 8.25 27.3223 8.35865 27.1172 8.55205C26.9121 8.74544 26.7969 9.00775 26.7969 9.28125C26.798 9.89083 26.6712 10.4946 26.4238 11.0578C26.1764 11.6209 25.8133 12.1324 25.3553 12.5627C24.899 12.9945 24.3565 13.3369 23.7592 13.5701C23.1619 13.8034 22.5215 13.923 21.875 13.9219C21.5849 13.9219 21.3067 14.0305 21.1016 14.2239C20.8965 14.4173 20.7812 14.6796 20.7812 14.9531C20.7812 15.2266 20.8965 15.4889 21.1016 15.6823C21.3067 15.8757 21.5849 15.9844 21.875 15.9844C23.566 15.9853 25.2014 15.4154 26.4852 14.3777L26.5027 14.3828C26.5972 14.415 26.6964 14.4334 26.7969 14.4375C28.4616 14.4375 29.9589 15.0707 31.0505 16.0988C32.0985 17.0874 32.7205 18.4072 32.7961 19.8031C32.7806 20.3311 32.6935 20.8551 32.5369 21.3623Z" fill="#329439"/>
</g>
<defs>
<clipPath id="clip0_167_11">
<rect width="35" height="33" fill="white"/>
</clipPath>
</defs>
</svg>
