<svg width="35" height="33" viewBox="0 0 35 33" fill="none" xmlns="http://www.w3.org/2000/svg">
<path d="M17.4999 16.5C15.8958 16.5 14.5833 15.2625 14.5833 13.75C14.5833 12.2375 15.8958 11 17.4999 11C19.1041 11 20.4166 12.2375 20.4166 13.75C20.4166 15.2625 19.1041 16.5 17.4999 16.5ZM26.2499 14.025C26.2499 9.03375 22.3853 5.5 17.4999 5.5C12.6145 5.5 8.74992 9.03375 8.74992 14.025C8.74992 17.2425 11.5937 21.505 17.4999 26.5925C23.4062 21.505 26.2499 17.2425 26.2499 14.025ZM17.4999 2.75C23.6249 2.75 29.1666 7.1775 29.1666 14.025C29.1666 18.59 25.2728 23.9937 17.4999 30.25C9.727 23.9937 5.83325 18.59 5.83325 14.025C5.83325 7.1775 11.3749 2.75 17.4999 2.75Z" fill="#329439"/>
</svg>
