<svg width="28" height="28" viewBox="0 0 28 28" fill="none" xmlns="http://www.w3.org/2000/svg">
<path d="M24.9915 9.67492L15.6582 0.341585C15.495 0.178474 15.2871 0.0673996 15.0609 0.0224041C14.8346 -0.0225914 14.6001 0.000512109 14.3869 0.0887938C14.1738 0.177076 13.9916 0.326572 13.8634 0.518383C13.7352 0.710195 13.6667 0.935709 13.6667 1.16642V5.30225C10.4797 5.59718 7.51743 7.07076 5.35964 9.43462C3.20185 11.7985 2.00382 14.8825 2 18.0831V19.8331C2.00018 20.0753 2.07573 20.3114 2.21615 20.5087C2.35658 20.706 2.55492 20.8547 2.78368 20.9342C3.01244 21.0137 3.26026 21.0201 3.49278 20.9524C3.72531 20.8847 3.931 20.7463 4.08133 20.5564C5.22431 19.1972 6.62672 18.0794 8.2066 17.2683C9.78649 16.4572 11.5122 15.9692 13.2828 15.8326C13.3412 15.8256 13.487 15.8139 13.6667 15.8023V19.8331C13.6667 20.0638 13.7352 20.2893 13.8634 20.4811C13.9916 20.6729 14.1738 20.8224 14.3869 20.9107C14.6001 20.999 14.8346 21.0221 15.0609 20.9771C15.2871 20.9321 15.495 20.821 15.6582 20.6579L24.9915 11.3246C25.2102 11.1058 25.3331 10.8091 25.3331 10.4998C25.3331 10.1904 25.2102 9.8937 24.9915 9.67492ZM16 17.0168V14.5831C16 14.2737 15.8771 13.9769 15.6583 13.7581C15.4395 13.5393 15.1428 13.4164 14.8333 13.4164C14.5358 13.4164 13.3213 13.4748 13.011 13.5156C9.86667 13.8053 6.87365 14.9999 4.394 16.9549C4.67545 14.3818 5.89613 12.0028 7.82231 10.2736C9.7485 8.54439 12.2448 7.58641 14.8333 7.58309C15.1428 7.58309 15.4395 7.46017 15.6583 7.24138C15.8771 7.02258 16 6.72584 16 6.41642V3.98275L22.517 10.4998L16 17.0168Z" fill="white"/>
</svg>
