<svg width="24" height="24" viewBox="0 0 24 24" fill="none" xmlns="http://www.w3.org/2000/svg">
<path d="M15.6117 5.7526L15.6116 5.75242L15.2837 5.16448L15.2836 5.16442L15.2603 5.12253C14.646 4.02089 14.1572 3.14436 13.7005 2.54799C13.2377 1.94371 12.7133 1.5 12 1.5C11.2867 1.5 10.7623 1.94371 10.2995 2.54799C9.8428 3.14436 9.35401 4.02089 8.73969 5.12253L8.71633 5.16442L8.7163 5.16448L8.38833 5.75242L8.38823 5.7526C8.00675 6.43716 7.87961 6.645 7.70262 6.77979C7.5278 6.91217 7.30696 6.97276 6.56575 7.1403L6.56558 7.14034L5.92976 7.2843L5.92958 7.28434L5.89264 7.29269C4.69689 7.56294 3.74145 7.77887 3.0525 8.05046C2.34702 8.32857 1.79304 8.71387 1.5796 9.39935L1.57945 9.39982C1.36843 10.0799 1.59673 10.7215 2.00696 11.3732C2.41007 12.0136 3.06014 12.7734 3.87725 13.7284L3.89984 13.7548L3.90008 13.7551L4.33384 14.2628L4.33417 14.2632C4.83758 14.8512 4.98862 15.0422 5.05704 15.2648L5.05703 15.2649L5.05795 15.2678C5.12841 15.4922 5.1134 15.7436 5.03736 16.5294C5.03736 16.5294 5.03735 16.5294 5.03735 16.5294C5.03734 16.5296 5.03733 16.5297 5.03732 16.5298L4.97136 17.2054L4.97131 17.2059L4.96673 17.2533C4.84393 18.5233 4.74645 19.5316 4.78049 20.293C4.815 21.0648 4.98877 21.7306 5.55375 22.1593L5.55391 22.1594C6.12625 22.5934 6.80374 22.559 7.52703 22.3516C8.23569 22.1485 9.12798 21.7378 10.2447 21.2238L10.2848 21.2053L10.285 21.2052L10.8808 20.9313L10.8816 20.9309C11.5765 20.61 11.7883 20.525 12 20.525C12.2116 20.525 12.4234 20.61 13.1184 20.9309L13.1194 20.9314L13.7159 21.2052L13.7164 21.2054L13.7613 21.2261C14.875 21.739 15.7656 22.149 16.4732 22.3519C17.1967 22.5593 17.8744 22.5933 18.4471 22.1584C19.0119 21.73 19.1853 21.0642 19.2196 20.2928C19.2535 19.5315 19.1561 18.5233 19.0333 17.2533L19.0287 17.2059L19.0286 17.2055L18.9627 16.5288C18.8866 15.7443 18.8713 15.4915 18.9415 15.2651C19.011 15.0423 19.163 14.8506 19.6661 14.2618L20.0998 13.7551L20.1 13.755L20.1246 13.7262C20.9408 12.7717 21.5902 12.0124 21.993 11.3725C22.4032 10.7209 22.6316 10.0794 22.4205 9.39967L22.4204 9.39935C22.2069 8.71388 21.6532 8.32882 20.948 8.05083C20.2612 7.78012 19.3092 7.56459 18.1181 7.29491L18.0714 7.28434L17.961 7.772L18.0714 7.28434L17.4354 7.14034L17.4351 7.14027C16.6917 6.97248 16.4711 6.91197 16.2977 6.78006C16.1205 6.64528 15.9935 6.43761 15.6117 5.7526Z" fill="black" stroke="black"/>
</svg>
