<svg width="31" height="28" viewBox="0 0 31 28" fill="none" xmlns="http://www.w3.org/2000/svg">
<path d="M24.6063 5.72832C23.4221 4.6479 22.0116 3.79127 20.457 3.20838C18.9024 2.62549 17.2349 2.32803 15.5517 2.33332C8.4992 2.33332 2.75128 7.52499 2.75128 13.895C2.75128 15.9367 3.34545 17.92 4.45628 19.67L2.64795 25.6667L9.4292 24.0567C11.3021 24.9783 13.4075 25.4683 15.5517 25.4683C22.6042 25.4683 28.3521 20.2767 28.3521 13.9067C28.3521 10.815 27.0217 7.90999 24.6063 5.72832ZM15.5517 23.5083C13.64 23.5083 11.7671 23.0417 10.1267 22.1667L9.7392 21.9567L5.7092 22.9133L6.78128 19.3667L6.52295 19.005C5.46087 17.4731 4.89692 15.7024 4.89545 13.895C4.89545 8.59832 9.67461 4.28165 15.5388 4.28165C18.3804 4.28165 21.0542 5.28499 23.0563 7.10499C24.0476 7.99628 24.8332 9.05643 25.3676 10.224C25.9019 11.3915 26.1744 12.6433 26.1692 13.9067C26.195 19.2033 21.4159 23.5083 15.5517 23.5083ZM21.39 16.3217C21.0671 16.1817 19.4913 15.4817 19.2071 15.3767C18.91 15.2833 18.7034 15.2367 18.4838 15.5167C18.2642 15.8083 17.6571 16.4617 17.4763 16.6483C17.2954 16.8467 17.1017 16.87 16.7788 16.7183C16.4559 16.5783 15.4225 16.2633 14.2084 15.2833C13.2525 14.5133 12.6196 13.5683 12.4259 13.2767C12.245 12.985 12.4 12.8333 12.5679 12.6817C12.71 12.5533 12.8909 12.3433 13.0459 12.18C13.2009 12.0167 13.2654 11.8883 13.3688 11.7017C13.4721 11.5033 13.4204 11.34 13.3429 11.2C13.2654 11.06 12.6196 9.63665 12.3613 9.05332C12.1029 8.49332 11.8317 8.56332 11.6379 8.55165H11.0179C10.7984 8.55165 10.4625 8.62165 10.1654 8.91332C9.88128 9.20499 9.05462 9.90499 9.05462 11.3283C9.05462 12.7517 10.2042 14.1283 10.3592 14.315C10.5142 14.5133 12.6196 17.43 15.8229 18.6783C16.585 18.9817 17.1792 19.1567 17.6442 19.285C18.4063 19.5067 19.1038 19.4717 19.6592 19.4017C20.2792 19.32 21.5579 18.7017 21.8163 18.025C22.0875 17.3483 22.0875 16.7767 21.9971 16.6483C21.9067 16.52 21.7129 16.4617 21.39 16.3217Z" fill="white"/>
</svg>
