<svg width="28" height="28" viewBox="0 0 28 28" fill="none" xmlns="http://www.w3.org/2000/svg">
<path d="M23 4.66667C23.6767 4.66667 24.225 4.9 24.6567 5.355C25.1 5.83333 25.3333 6.35833 25.3333 7V19.8333C25.3333 20.475 25.1 21 24.6567 21.4783C24.225 21.9333 23.6767 22.1667 23 22.1667H4.33333C3.65667 22.1667 3.10833 21.9333 2.67667 21.4783C2.23333 21 2 20.475 2 19.8333V7C2 6.35833 2.23333 5.83333 2.67667 5.355C3.10833 4.9 3.65667 4.66667 4.33333 4.66667H9V2.33333C9 1.65667 9.23333 1.10833 9.67667 0.676667C10.1083 0.233333 10.6567 0 11.3333 0H16C16.6767 0 17.225 0.233333 17.6567 0.676667C18.1 1.10833 18.3333 1.65667 18.3333 2.33333V4.66667H23ZM4.33333 7V19.8333H23V7H4.33333ZM16 4.66667V2.33333H11.3333V4.66667H16Z" fill="white"/>
</svg>
