<svg width="35" height="33" viewBox="0 0 35 33" fill="none" xmlns="http://www.w3.org/2000/svg">
<path d="M19.7388 30.9375L21.9263 33H4.375V4.125H13.125C13.125 3.55566 13.2389 3.02393 13.4668 2.52979C13.6947 2.03564 14.008 1.59521 14.4067 1.2085C14.8055 0.821777 15.2669 0.526367 15.791 0.322266C16.3151 0.118164 16.8848 0.0107422 17.5 0C18.1038 0 18.6678 0.107422 19.1919 0.322266C19.716 0.537109 20.1831 0.83252 20.5933 1.2085C21.0034 1.58447 21.3167 2.01953 21.5332 2.51367C21.7497 3.00781 21.8636 3.54492 21.875 4.125H30.625V20.6733L28.4375 22.7358V6.1875H26.25V10.3125H8.75V6.1875H6.5625V30.9375H19.7388ZM10.9375 6.1875V8.25H24.0625V6.1875H19.6875V4.125C19.6875 3.83496 19.6305 3.56641 19.5166 3.31934C19.4027 3.07227 19.2489 2.85742 19.0552 2.6748C18.8615 2.49219 18.6279 2.3418 18.3545 2.22363C18.0811 2.10547 17.7962 2.05176 17.5 2.0625C17.1924 2.0625 16.9076 2.11621 16.6455 2.22363C16.3835 2.33105 16.1556 2.47607 15.9619 2.65869C15.7682 2.84131 15.6087 3.06152 15.4834 3.31934C15.3581 3.57715 15.3011 3.8457 15.3125 4.125V6.1875H10.9375ZM34.6753 23.4126L25.1562 32.4038L20.5591 28.0532L22.0972 26.603L25.1562 29.4712L33.1372 21.9624L34.6753 23.4126Z" fill="#329439"/>
</svg>
